<mxfile host="app.diagrams.net" agent="Mozilla/5.0 (Windows NT 10.0; Win64; x64) AppleWebKit/537.36 (KHTML, like Gecko) Chrome/139.0.0.0 Safari/537.36 Edg/139.0.0.0" version="28.2.0">
  <diagram name="第 1 页" id="_VsEsWfQ4mNRQcYRXDtU">
    <mxGraphModel dx="1613" dy="936" grid="1" gridSize="10" guides="1" tooltips="1" connect="1" arrows="1" fold="1" page="1" pageScale="1" pageWidth="4681" pageHeight="3300" math="0" shadow="0">
      <root>
        <mxCell id="0" />
        <mxCell id="1" parent="0" />
        <mxCell id="NNPySh-XJAqyyE1wnARs-1" value="" style="endArrow=classic;html=1;rounded=0;" edge="1" parent="1">
          <mxGeometry width="50" height="50" relative="1" as="geometry">
            <mxPoint x="160" y="599.295991902834" as="sourcePoint" />
            <mxPoint x="490" y="599.295991902834" as="targetPoint" />
          </mxGeometry>
        </mxCell>
        <mxCell id="NNPySh-XJAqyyE1wnARs-2" value="" style="html=1;points=[[0,0,0,0,5],[0,1,0,0,-5],[1,0,0,0,5],[1,1,0,0,-5]];perimeter=orthogonalPerimeter;outlineConnect=0;targetShapes=umlLifeline;portConstraint=eastwest;newEdgeStyle={&quot;curved&quot;:0,&quot;rounded&quot;:0};" vertex="1" parent="1">
          <mxGeometry x="200" y="569.295991902834" width="2" height="30" as="geometry" />
        </mxCell>
        <mxCell id="NNPySh-XJAqyyE1wnARs-3" value="" style="html=1;points=[[0,0,0,0,5],[0,1,0,0,-5],[1,0,0,0,5],[1,1,0,0,-5]];perimeter=orthogonalPerimeter;outlineConnect=0;targetShapes=umlLifeline;portConstraint=eastwest;newEdgeStyle={&quot;curved&quot;:0,&quot;rounded&quot;:0};" vertex="1" parent="1">
          <mxGeometry x="440" y="569.295991902834" width="2" height="30" as="geometry" />
        </mxCell>
        <mxCell id="NNPySh-XJAqyyE1wnARs-4" value="" style="endArrow=classic;html=1;rounded=0;" edge="1" parent="1">
          <mxGeometry width="50" height="50" relative="1" as="geometry">
            <mxPoint x="160" y="679.2959919028341" as="sourcePoint" />
            <mxPoint x="490" y="679.2959919028341" as="targetPoint" />
          </mxGeometry>
        </mxCell>
        <mxCell id="NNPySh-XJAqyyE1wnARs-5" value="" style="html=1;points=[[0,0,0,0,5],[0,1,0,0,-5],[1,0,0,0,5],[1,1,0,0,-5]];perimeter=orthogonalPerimeter;outlineConnect=0;targetShapes=umlLifeline;portConstraint=eastwest;newEdgeStyle={&quot;curved&quot;:0,&quot;rounded&quot;:0};" vertex="1" parent="1">
          <mxGeometry x="200" y="649.2959919028341" width="2" height="30" as="geometry" />
        </mxCell>
        <mxCell id="NNPySh-XJAqyyE1wnARs-6" value="" style="html=1;points=[[0,0,0,0,5],[0,1,0,0,-5],[1,0,0,0,5],[1,1,0,0,-5]];perimeter=orthogonalPerimeter;outlineConnect=0;targetShapes=umlLifeline;portConstraint=eastwest;newEdgeStyle={&quot;curved&quot;:0,&quot;rounded&quot;:0};" vertex="1" parent="1">
          <mxGeometry x="440" y="649.2959919028341" width="2" height="30" as="geometry" />
        </mxCell>
        <mxCell id="NNPySh-XJAqyyE1wnARs-7" value="" style="endArrow=classic;html=1;rounded=0;" edge="1" parent="1">
          <mxGeometry width="50" height="50" relative="1" as="geometry">
            <mxPoint x="160" y="599.295991902834" as="sourcePoint" />
            <mxPoint x="160" y="559.295991902834" as="targetPoint" />
          </mxGeometry>
        </mxCell>
        <mxCell id="NNPySh-XJAqyyE1wnARs-8" value="ir_fsin:30fps" style="text;html=1;align=center;verticalAlign=middle;resizable=0;points=[];autosize=1;strokeColor=none;fillColor=none;" vertex="1" parent="1">
          <mxGeometry x="80" y="579.295991902834" width="90" height="30" as="geometry" />
        </mxCell>
        <mxCell id="NNPySh-XJAqyyE1wnARs-9" value="" style="endArrow=classic;html=1;rounded=0;" edge="1" parent="1">
          <mxGeometry width="50" height="50" relative="1" as="geometry">
            <mxPoint x="160" y="679.2959919028341" as="sourcePoint" />
            <mxPoint x="160" y="639.2959919028341" as="targetPoint" />
          </mxGeometry>
        </mxCell>
        <mxCell id="NNPySh-XJAqyyE1wnARs-10" value="ir_strobe: exposure 3ms" style="text;html=1;align=center;verticalAlign=middle;resizable=0;points=[];autosize=1;strokeColor=none;fillColor=none;container=0;" vertex="1" parent="1">
          <mxGeometry x="60" y="759.2959919028341" width="150" height="30" as="geometry" />
        </mxCell>
        <mxCell id="NNPySh-XJAqyyE1wnARs-11" value="rgb_strobe: exposure 6ms" style="text;html=1;align=center;verticalAlign=middle;resizable=0;points=[];autosize=1;strokeColor=none;fillColor=none;container=0;" vertex="1" parent="1">
          <mxGeometry x="50" y="839.2959919028341" width="160" height="30" as="geometry" />
        </mxCell>
        <mxCell id="NNPySh-XJAqyyE1wnARs-12" value="" style="endArrow=none;html=1;rounded=0;" edge="1" parent="1">
          <mxGeometry width="50" height="50" relative="1" as="geometry">
            <mxPoint x="177" y="839.2959919028341" as="sourcePoint" />
            <mxPoint x="177" y="809.2959919028341" as="targetPoint" />
          </mxGeometry>
        </mxCell>
        <mxCell id="NNPySh-XJAqyyE1wnARs-13" value="" style="endArrow=none;html=1;rounded=0;exitX=0.714;exitY=1;exitDx=0;exitDy=0;exitPerimeter=0;" edge="1" parent="1">
          <mxGeometry width="50" height="50" relative="1" as="geometry">
            <mxPoint x="177.01999999999998" y="809.2959919028341" as="sourcePoint" />
            <mxPoint x="190" y="809.2929959514171" as="targetPoint" />
          </mxGeometry>
        </mxCell>
        <mxCell id="NNPySh-XJAqyyE1wnARs-14" value="" style="endArrow=none;html=1;rounded=0;" edge="1" parent="1">
          <mxGeometry width="50" height="50" relative="1" as="geometry">
            <mxPoint x="190" y="839.2959919028341" as="sourcePoint" />
            <mxPoint x="190" y="809.2959919028341" as="targetPoint" />
          </mxGeometry>
        </mxCell>
        <mxCell id="NNPySh-XJAqyyE1wnARs-15" value="" style="endArrow=none;html=1;rounded=0;exitX=0.872;exitY=0.01;exitDx=0;exitDy=0;exitPerimeter=0;" edge="1" parent="1" source="NNPySh-XJAqyyE1wnARs-11">
          <mxGeometry width="50" height="50" relative="1" as="geometry">
            <mxPoint x="277.02" y="839.2959919028341" as="sourcePoint" />
            <mxPoint x="416" y="839.2959919028341" as="targetPoint" />
          </mxGeometry>
        </mxCell>
        <mxCell id="NNPySh-XJAqyyE1wnARs-16" value="" style="endArrow=none;html=1;rounded=0;" edge="1" parent="1">
          <mxGeometry width="50" height="50" relative="1" as="geometry">
            <mxPoint x="197.01999999999998" y="759.2959919028341" as="sourcePoint" />
            <mxPoint x="197.01999999999998" y="729.2959919028341" as="targetPoint" />
          </mxGeometry>
        </mxCell>
        <mxCell id="NNPySh-XJAqyyE1wnARs-17" value="" style="endArrow=none;html=1;rounded=0;" edge="1" parent="1">
          <mxGeometry width="50" height="50" relative="1" as="geometry">
            <mxPoint x="190" y="729.2929959514171" as="sourcePoint" />
            <mxPoint x="197.01999999999998" y="729.2959919028341" as="targetPoint" />
          </mxGeometry>
        </mxCell>
        <mxCell id="NNPySh-XJAqyyE1wnARs-18" value="" style="endArrow=none;html=1;rounded=0;" edge="1" parent="1">
          <mxGeometry width="50" height="50" relative="1" as="geometry">
            <mxPoint x="197.01999999999998" y="759.2959919028341" as="sourcePoint" />
            <mxPoint x="197.01999999999998" y="729.2959919028341" as="targetPoint" />
          </mxGeometry>
        </mxCell>
        <mxCell id="NNPySh-XJAqyyE1wnARs-19" value="" style="endArrow=none;html=1;rounded=0;" edge="1" parent="1">
          <mxGeometry width="50" height="50" relative="1" as="geometry">
            <mxPoint x="190" y="759.2959919028341" as="sourcePoint" />
            <mxPoint x="190" y="729.2959919028341" as="targetPoint" />
          </mxGeometry>
        </mxCell>
        <mxCell id="NNPySh-XJAqyyE1wnARs-20" value="" style="endArrow=none;html=1;rounded=0;" edge="1" parent="1">
          <mxGeometry width="50" height="50" relative="1" as="geometry">
            <mxPoint x="197.01999999999998" y="759.2959919028341" as="sourcePoint" />
            <mxPoint x="240" y="759.2959919028341" as="targetPoint" />
          </mxGeometry>
        </mxCell>
        <mxCell id="NNPySh-XJAqyyE1wnARs-21" value="" style="endArrow=none;html=1;rounded=0;" edge="1" parent="1">
          <mxGeometry width="50" height="50" relative="1" as="geometry">
            <mxPoint x="237.01999999999998" y="759.2959919028341" as="sourcePoint" />
            <mxPoint x="270" y="759.2929959514171" as="targetPoint" />
          </mxGeometry>
        </mxCell>
        <mxCell id="NNPySh-XJAqyyE1wnARs-22" value="" style="endArrow=none;html=1;rounded=0;" edge="1" parent="1">
          <mxGeometry width="50" height="50" relative="1" as="geometry">
            <mxPoint x="277.02" y="759.2959919028341" as="sourcePoint" />
            <mxPoint x="277.02" y="729.2959919028341" as="targetPoint" />
          </mxGeometry>
        </mxCell>
        <mxCell id="NNPySh-XJAqyyE1wnARs-23" value="" style="endArrow=none;html=1;rounded=0;" edge="1" parent="1">
          <mxGeometry width="50" height="50" relative="1" as="geometry">
            <mxPoint x="270" y="729.2929959514171" as="sourcePoint" />
            <mxPoint x="277.02" y="729.2959919028341" as="targetPoint" />
          </mxGeometry>
        </mxCell>
        <mxCell id="NNPySh-XJAqyyE1wnARs-24" value="" style="endArrow=none;html=1;rounded=0;" edge="1" parent="1">
          <mxGeometry width="50" height="50" relative="1" as="geometry">
            <mxPoint x="277.02" y="759.2959919028341" as="sourcePoint" />
            <mxPoint x="277.02" y="729.2959919028341" as="targetPoint" />
          </mxGeometry>
        </mxCell>
        <mxCell id="NNPySh-XJAqyyE1wnARs-25" value="" style="endArrow=none;html=1;rounded=0;" edge="1" parent="1">
          <mxGeometry width="50" height="50" relative="1" as="geometry">
            <mxPoint x="277.02" y="759.2959919028341" as="sourcePoint" />
            <mxPoint x="350" y="759.2929959514171" as="targetPoint" />
          </mxGeometry>
        </mxCell>
        <mxCell id="NNPySh-XJAqyyE1wnARs-26" value="" style="endArrow=none;html=1;rounded=0;exitX=0.812;exitY=-0.005;exitDx=0;exitDy=0;exitPerimeter=0;" edge="1" parent="1">
          <mxGeometry width="50" height="50" relative="1" as="geometry">
            <mxPoint x="160" y="839.2959919028341" as="sourcePoint" />
            <mxPoint x="177" y="839.2959919028341" as="targetPoint" />
          </mxGeometry>
        </mxCell>
        <mxCell id="NNPySh-XJAqyyE1wnARs-27" value="" style="endArrow=none;html=1;rounded=0;exitX=0.812;exitY=-0.005;exitDx=0;exitDy=0;exitPerimeter=0;" edge="1" parent="1">
          <mxGeometry width="50" height="50" relative="1" as="geometry">
            <mxPoint x="160" y="759.2959919028341" as="sourcePoint" />
            <mxPoint x="190" y="759.2959919028341" as="targetPoint" />
          </mxGeometry>
        </mxCell>
        <mxCell id="NNPySh-XJAqyyE1wnARs-28" value="&lt;span style=&quot;color: rgb(0, 0, 0); font-family: Helvetica; font-size: 12px; font-style: normal; font-variant-ligatures: normal; font-variant-caps: normal; font-weight: 400; letter-spacing: normal; orphans: 2; text-align: center; text-indent: 0px; text-transform: none; widows: 2; word-spacing: 0px; -webkit-text-stroke-width: 0px; white-space: nowrap; text-decoration-thickness: initial; text-decoration-style: initial; text-decoration-color: initial; float: none; display: inline !important;&quot;&gt;rgb_fsin:10fps&lt;/span&gt;" style="text;whiteSpace=wrap;html=1;" vertex="1" parent="1">
          <mxGeometry x="80" y="659.2959919028341" width="70" height="40" as="geometry" />
        </mxCell>
        <mxCell id="NNPySh-XJAqyyE1wnARs-29" value="" style="endArrow=none;dashed=1;html=1;dashPattern=1 3;strokeWidth=2;rounded=0;" edge="1" parent="1">
          <mxGeometry width="50" height="50" relative="1" as="geometry">
            <mxPoint x="222" y="888.585991902834" as="sourcePoint" />
            <mxPoint x="222" y="541.42" as="targetPoint" />
          </mxGeometry>
        </mxCell>
        <mxCell id="NNPySh-XJAqyyE1wnARs-30" value="" style="endArrow=none;dashed=1;html=1;dashPattern=1 3;strokeWidth=2;rounded=0;" edge="1" parent="1">
          <mxGeometry width="50" height="50" relative="1" as="geometry">
            <mxPoint x="465" y="887.1689878542511" as="sourcePoint" />
            <mxPoint x="465" y="540.002995951417" as="targetPoint" />
          </mxGeometry>
        </mxCell>
        <mxCell id="NNPySh-XJAqyyE1wnARs-31" value="" style="html=1;points=[[0,0,0,0,5],[0,1,0,0,-5],[1,0,0,0,5],[1,1,0,0,-5]];perimeter=orthogonalPerimeter;outlineConnect=0;targetShapes=umlLifeline;portConstraint=eastwest;newEdgeStyle={&quot;curved&quot;:0,&quot;rounded&quot;:0};" vertex="1" parent="1">
          <mxGeometry x="360" y="569.295991902834" width="2" height="30" as="geometry" />
        </mxCell>
        <mxCell id="NNPySh-XJAqyyE1wnARs-32" value="" style="html=1;points=[[0,0,0,0,5],[0,1,0,0,-5],[1,0,0,0,5],[1,1,0,0,-5]];perimeter=orthogonalPerimeter;outlineConnect=0;targetShapes=umlLifeline;portConstraint=eastwest;newEdgeStyle={&quot;curved&quot;:0,&quot;rounded&quot;:0};" vertex="1" parent="1">
          <mxGeometry x="280" y="569.295991902834" width="2" height="30" as="geometry" />
        </mxCell>
        <mxCell id="NNPySh-XJAqyyE1wnARs-33" value="" style="endArrow=none;html=1;rounded=0;" edge="1" parent="1">
          <mxGeometry width="50" height="50" relative="1" as="geometry">
            <mxPoint x="270" y="759.2959919028341" as="sourcePoint" />
            <mxPoint x="270" y="729.2959919028341" as="targetPoint" />
          </mxGeometry>
        </mxCell>
        <mxCell id="NNPySh-XJAqyyE1wnARs-34" value="" style="endArrow=none;html=1;rounded=0;" edge="1" parent="1">
          <mxGeometry width="50" height="50" relative="1" as="geometry">
            <mxPoint x="350" y="729.2929959514171" as="sourcePoint" />
            <mxPoint x="356" y="729.2959919028341" as="targetPoint" />
          </mxGeometry>
        </mxCell>
        <mxCell id="NNPySh-XJAqyyE1wnARs-35" value="" style="endArrow=none;html=1;rounded=0;" edge="1" parent="1">
          <mxGeometry width="50" height="50" relative="1" as="geometry">
            <mxPoint x="350" y="759.2959919028341" as="sourcePoint" />
            <mxPoint x="350" y="729.2959919028341" as="targetPoint" />
          </mxGeometry>
        </mxCell>
        <mxCell id="NNPySh-XJAqyyE1wnARs-36" value="" style="endArrow=none;html=1;rounded=0;" edge="1" parent="1">
          <mxGeometry width="50" height="50" relative="1" as="geometry">
            <mxPoint x="356" y="759.2959919028341" as="sourcePoint" />
            <mxPoint x="356" y="729.2959919028341" as="targetPoint" />
          </mxGeometry>
        </mxCell>
        <mxCell id="NNPySh-XJAqyyE1wnARs-37" value="" style="endArrow=none;html=1;rounded=0;" edge="1" parent="1">
          <mxGeometry width="50" height="50" relative="1" as="geometry">
            <mxPoint x="356" y="759.2959919028341" as="sourcePoint" />
            <mxPoint x="356" y="729.2959919028341" as="targetPoint" />
          </mxGeometry>
        </mxCell>
        <mxCell id="NNPySh-XJAqyyE1wnARs-38" value="" style="endArrow=none;html=1;rounded=0;" edge="1" parent="1">
          <mxGeometry width="50" height="50" relative="1" as="geometry">
            <mxPoint x="356" y="760.2959919028341" as="sourcePoint" />
            <mxPoint x="356" y="730.2959919028341" as="targetPoint" />
          </mxGeometry>
        </mxCell>
        <mxCell id="NNPySh-XJAqyyE1wnARs-39" value="" style="endArrow=none;html=1;rounded=0;" edge="1" parent="1">
          <mxGeometry width="50" height="50" relative="1" as="geometry">
            <mxPoint x="356" y="759.2959919028341" as="sourcePoint" />
            <mxPoint x="430" y="759.2929959514171" as="targetPoint" />
          </mxGeometry>
        </mxCell>
        <mxCell id="NNPySh-XJAqyyE1wnARs-40" value="" style="endArrow=none;html=1;rounded=0;" edge="1" parent="1">
          <mxGeometry width="50" height="50" relative="1" as="geometry">
            <mxPoint x="436" y="759.2959919028341" as="sourcePoint" />
            <mxPoint x="436" y="729.2959919028341" as="targetPoint" />
          </mxGeometry>
        </mxCell>
        <mxCell id="NNPySh-XJAqyyE1wnARs-41" value="" style="endArrow=none;html=1;rounded=0;" edge="1" parent="1">
          <mxGeometry width="50" height="50" relative="1" as="geometry">
            <mxPoint x="430" y="729.2929959514171" as="sourcePoint" />
            <mxPoint x="436" y="729.2959919028341" as="targetPoint" />
          </mxGeometry>
        </mxCell>
        <mxCell id="NNPySh-XJAqyyE1wnARs-42" value="" style="endArrow=none;html=1;rounded=0;" edge="1" parent="1">
          <mxGeometry width="50" height="50" relative="1" as="geometry">
            <mxPoint x="436" y="759.2959919028341" as="sourcePoint" />
            <mxPoint x="436" y="729.2959919028341" as="targetPoint" />
          </mxGeometry>
        </mxCell>
        <mxCell id="NNPySh-XJAqyyE1wnARs-43" value="" style="endArrow=none;html=1;rounded=0;" edge="1" parent="1">
          <mxGeometry width="50" height="50" relative="1" as="geometry">
            <mxPoint x="436" y="759.2959919028341" as="sourcePoint" />
            <mxPoint x="488" y="759.2959919028341" as="targetPoint" />
          </mxGeometry>
        </mxCell>
        <mxCell id="NNPySh-XJAqyyE1wnARs-44" value="" style="endArrow=none;html=1;rounded=0;" edge="1" parent="1">
          <mxGeometry width="50" height="50" relative="1" as="geometry">
            <mxPoint x="430" y="759.2959919028341" as="sourcePoint" />
            <mxPoint x="430" y="729.2959919028341" as="targetPoint" />
          </mxGeometry>
        </mxCell>
        <mxCell id="NNPySh-XJAqyyE1wnARs-45" value="" style="endArrow=none;html=1;rounded=0;exitX=0.714;exitY=1;exitDx=0;exitDy=0;exitPerimeter=0;" edge="1" parent="1">
          <mxGeometry width="50" height="50" relative="1" as="geometry">
            <mxPoint x="416" y="809.2959919028341" as="sourcePoint" />
            <mxPoint x="430" y="809.2929959514171" as="targetPoint" />
          </mxGeometry>
        </mxCell>
        <mxCell id="NNPySh-XJAqyyE1wnARs-46" value="" style="endArrow=none;html=1;rounded=0;" edge="1" parent="1">
          <mxGeometry width="50" height="50" relative="1" as="geometry">
            <mxPoint x="430" y="839.2959919028341" as="sourcePoint" />
            <mxPoint x="430" y="809.2959919028341" as="targetPoint" />
          </mxGeometry>
        </mxCell>
        <mxCell id="NNPySh-XJAqyyE1wnARs-47" value="" style="endArrow=none;html=1;rounded=0;" edge="1" parent="1">
          <mxGeometry width="50" height="50" relative="1" as="geometry">
            <mxPoint x="416" y="839.2959919028341" as="sourcePoint" />
            <mxPoint x="416" y="809.2959919028341" as="targetPoint" />
          </mxGeometry>
        </mxCell>
        <mxCell id="NNPySh-XJAqyyE1wnARs-48" value="" style="endArrow=none;html=1;rounded=0;" edge="1" parent="1">
          <mxGeometry width="50" height="50" relative="1" as="geometry">
            <mxPoint x="430" y="839.2929959514171" as="sourcePoint" />
            <mxPoint x="488" y="839.2959919028341" as="targetPoint" />
          </mxGeometry>
        </mxCell>
        <mxCell id="NNPySh-XJAqyyE1wnARs-49" value="" style="endArrow=classic;html=1;rounded=0;" edge="1" parent="1">
          <mxGeometry width="50" height="50" relative="1" as="geometry">
            <mxPoint x="160" y="198.582995951417" as="sourcePoint" />
            <mxPoint x="490" y="198.582995951417" as="targetPoint" />
          </mxGeometry>
        </mxCell>
        <mxCell id="NNPySh-XJAqyyE1wnARs-50" value="" style="html=1;points=[[0,0,0,0,5],[0,1,0,0,-5],[1,0,0,0,5],[1,1,0,0,-5]];perimeter=orthogonalPerimeter;outlineConnect=0;targetShapes=umlLifeline;portConstraint=eastwest;newEdgeStyle={&quot;curved&quot;:0,&quot;rounded&quot;:0};" vertex="1" parent="1">
          <mxGeometry x="200" y="168.582995951417" width="2" height="30" as="geometry" />
        </mxCell>
        <mxCell id="NNPySh-XJAqyyE1wnARs-51" value="" style="html=1;points=[[0,0,0,0,5],[0,1,0,0,-5],[1,0,0,0,5],[1,1,0,0,-5]];perimeter=orthogonalPerimeter;outlineConnect=0;targetShapes=umlLifeline;portConstraint=eastwest;newEdgeStyle={&quot;curved&quot;:0,&quot;rounded&quot;:0};" vertex="1" parent="1">
          <mxGeometry x="440" y="168.582995951417" width="2" height="30" as="geometry" />
        </mxCell>
        <mxCell id="NNPySh-XJAqyyE1wnARs-52" value="" style="endArrow=classic;html=1;rounded=0;" edge="1" parent="1">
          <mxGeometry width="50" height="50" relative="1" as="geometry">
            <mxPoint x="160" y="278.58299595141705" as="sourcePoint" />
            <mxPoint x="490" y="278.58299595141705" as="targetPoint" />
          </mxGeometry>
        </mxCell>
        <mxCell id="NNPySh-XJAqyyE1wnARs-53" value="" style="html=1;points=[[0,0,0,0,5],[0,1,0,0,-5],[1,0,0,0,5],[1,1,0,0,-5]];perimeter=orthogonalPerimeter;outlineConnect=0;targetShapes=umlLifeline;portConstraint=eastwest;newEdgeStyle={&quot;curved&quot;:0,&quot;rounded&quot;:0};" vertex="1" parent="1">
          <mxGeometry x="200" y="248.58299595141705" width="2" height="30" as="geometry" />
        </mxCell>
        <mxCell id="NNPySh-XJAqyyE1wnARs-54" value="" style="html=1;points=[[0,0,0,0,5],[0,1,0,0,-5],[1,0,0,0,5],[1,1,0,0,-5]];perimeter=orthogonalPerimeter;outlineConnect=0;targetShapes=umlLifeline;portConstraint=eastwest;newEdgeStyle={&quot;curved&quot;:0,&quot;rounded&quot;:0};" vertex="1" parent="1">
          <mxGeometry x="440" y="248.58299595141705" width="2" height="30" as="geometry" />
        </mxCell>
        <mxCell id="NNPySh-XJAqyyE1wnARs-55" value="" style="endArrow=classic;html=1;rounded=0;" edge="1" parent="1">
          <mxGeometry width="50" height="50" relative="1" as="geometry">
            <mxPoint x="160" y="198.582995951417" as="sourcePoint" />
            <mxPoint x="160" y="158.582995951417" as="targetPoint" />
          </mxGeometry>
        </mxCell>
        <mxCell id="NNPySh-XJAqyyE1wnARs-56" value="ir_fsin:30fps" style="text;html=1;align=center;verticalAlign=middle;resizable=0;points=[];autosize=1;strokeColor=none;fillColor=none;" vertex="1" parent="1">
          <mxGeometry x="80" y="178.582995951417" width="90" height="30" as="geometry" />
        </mxCell>
        <mxCell id="NNPySh-XJAqyyE1wnARs-57" value="" style="endArrow=classic;html=1;rounded=0;" edge="1" parent="1">
          <mxGeometry width="50" height="50" relative="1" as="geometry">
            <mxPoint x="160" y="278.58299595141705" as="sourcePoint" />
            <mxPoint x="160" y="238.58299595141702" as="targetPoint" />
          </mxGeometry>
        </mxCell>
        <mxCell id="NNPySh-XJAqyyE1wnARs-58" value="ir_strobe: exposure 6ms" style="text;html=1;align=center;verticalAlign=middle;resizable=0;points=[];autosize=1;strokeColor=none;fillColor=none;container=0;" vertex="1" parent="1">
          <mxGeometry x="35" y="338.58299595141705" width="150" height="30" as="geometry" />
        </mxCell>
        <mxCell id="NNPySh-XJAqyyE1wnARs-59" value="rgb_strobe: exposure 6ms" style="text;html=1;align=center;verticalAlign=middle;resizable=0;points=[];autosize=1;strokeColor=none;fillColor=none;container=0;" vertex="1" parent="1">
          <mxGeometry x="30" y="418.582995951417" width="160" height="30" as="geometry" />
        </mxCell>
        <mxCell id="NNPySh-XJAqyyE1wnARs-60" value="" style="endArrow=none;html=1;rounded=0;" edge="1" parent="1">
          <mxGeometry width="50" height="50" relative="1" as="geometry">
            <mxPoint x="182" y="438.582995951417" as="sourcePoint" />
            <mxPoint x="182" y="408.582995951417" as="targetPoint" />
          </mxGeometry>
        </mxCell>
        <mxCell id="NNPySh-XJAqyyE1wnARs-61" value="" style="endArrow=none;html=1;rounded=0;" edge="1" parent="1">
          <mxGeometry width="50" height="50" relative="1" as="geometry">
            <mxPoint x="202.01999999999998" y="438.582995951417" as="sourcePoint" />
            <mxPoint x="202.01999999999998" y="408.582995951417" as="targetPoint" />
          </mxGeometry>
        </mxCell>
        <mxCell id="NNPySh-XJAqyyE1wnARs-62" value="" style="endArrow=none;html=1;rounded=0;exitX=0.714;exitY=1;exitDx=0;exitDy=0;exitPerimeter=0;" edge="1" parent="1">
          <mxGeometry width="50" height="50" relative="1" as="geometry">
            <mxPoint x="182.01999999999998" y="408.582995951417" as="sourcePoint" />
            <mxPoint x="202.01999999999998" y="408.582995951417" as="targetPoint" />
          </mxGeometry>
        </mxCell>
        <mxCell id="NNPySh-XJAqyyE1wnARs-63" value="" style="endArrow=none;html=1;rounded=0;" edge="1" parent="1">
          <mxGeometry width="50" height="50" relative="1" as="geometry">
            <mxPoint x="202.01999999999998" y="438.582995951417" as="sourcePoint" />
            <mxPoint x="202.01999999999998" y="408.582995951417" as="targetPoint" />
          </mxGeometry>
        </mxCell>
        <mxCell id="NNPySh-XJAqyyE1wnARs-64" value="" style="endArrow=none;html=1;rounded=0;" edge="1" parent="1">
          <mxGeometry width="50" height="50" relative="1" as="geometry">
            <mxPoint x="202.01999999999998" y="438.582995951417" as="sourcePoint" />
            <mxPoint x="282" y="438.582995951417" as="targetPoint" />
          </mxGeometry>
        </mxCell>
        <mxCell id="NNPySh-XJAqyyE1wnARs-65" value="" style="endArrow=none;html=1;rounded=0;" edge="1" parent="1">
          <mxGeometry width="50" height="50" relative="1" as="geometry">
            <mxPoint x="282.02" y="438.582995951417" as="sourcePoint" />
            <mxPoint x="421" y="438.582995951417" as="targetPoint" />
          </mxGeometry>
        </mxCell>
        <mxCell id="NNPySh-XJAqyyE1wnARs-66" value="" style="endArrow=none;html=1;rounded=0;" edge="1" parent="1">
          <mxGeometry width="50" height="50" relative="1" as="geometry">
            <mxPoint x="197.01999999999998" y="358.582995951417" as="sourcePoint" />
            <mxPoint x="197.01999999999998" y="328.58299595141705" as="targetPoint" />
          </mxGeometry>
        </mxCell>
        <mxCell id="NNPySh-XJAqyyE1wnARs-67" value="" style="endArrow=none;html=1;rounded=0;exitX=0.714;exitY=1;exitDx=0;exitDy=0;exitPerimeter=0;" edge="1" parent="1">
          <mxGeometry width="50" height="50" relative="1" as="geometry">
            <mxPoint x="177.01999999999998" y="328.58299595141705" as="sourcePoint" />
            <mxPoint x="197.01999999999998" y="328.58299595141705" as="targetPoint" />
          </mxGeometry>
        </mxCell>
        <mxCell id="NNPySh-XJAqyyE1wnARs-68" value="" style="endArrow=none;html=1;rounded=0;" edge="1" parent="1">
          <mxGeometry width="50" height="50" relative="1" as="geometry">
            <mxPoint x="197.01999999999998" y="358.582995951417" as="sourcePoint" />
            <mxPoint x="197.01999999999998" y="328.58299595141705" as="targetPoint" />
          </mxGeometry>
        </mxCell>
        <mxCell id="NNPySh-XJAqyyE1wnARs-69" value="" style="endArrow=none;html=1;rounded=0;" edge="1" parent="1">
          <mxGeometry width="50" height="50" relative="1" as="geometry">
            <mxPoint x="177.01999999999998" y="358.582995951417" as="sourcePoint" />
            <mxPoint x="177.01999999999998" y="328.58299595141705" as="targetPoint" />
          </mxGeometry>
        </mxCell>
        <mxCell id="NNPySh-XJAqyyE1wnARs-70" value="" style="endArrow=none;html=1;rounded=0;" edge="1" parent="1">
          <mxGeometry width="50" height="50" relative="1" as="geometry">
            <mxPoint x="197.01999999999998" y="358.582995951417" as="sourcePoint" />
            <mxPoint x="240" y="358.582995951417" as="targetPoint" />
          </mxGeometry>
        </mxCell>
        <mxCell id="NNPySh-XJAqyyE1wnARs-71" value="" style="endArrow=none;html=1;rounded=0;" edge="1" parent="1">
          <mxGeometry width="50" height="50" relative="1" as="geometry">
            <mxPoint x="237.01999999999998" y="358.582995951417" as="sourcePoint" />
            <mxPoint x="258.02" y="358.582995951417" as="targetPoint" />
          </mxGeometry>
        </mxCell>
        <mxCell id="NNPySh-XJAqyyE1wnARs-72" value="" style="endArrow=none;html=1;rounded=0;" edge="1" parent="1">
          <mxGeometry width="50" height="50" relative="1" as="geometry">
            <mxPoint x="277.02" y="358.582995951417" as="sourcePoint" />
            <mxPoint x="277.02" y="328.58299595141705" as="targetPoint" />
          </mxGeometry>
        </mxCell>
        <mxCell id="NNPySh-XJAqyyE1wnARs-73" value="" style="endArrow=none;html=1;rounded=0;exitX=0.714;exitY=1;exitDx=0;exitDy=0;exitPerimeter=0;" edge="1" parent="1">
          <mxGeometry width="50" height="50" relative="1" as="geometry">
            <mxPoint x="257.02" y="328.58299595141705" as="sourcePoint" />
            <mxPoint x="277.02" y="328.58299595141705" as="targetPoint" />
          </mxGeometry>
        </mxCell>
        <mxCell id="NNPySh-XJAqyyE1wnARs-74" value="" style="endArrow=none;html=1;rounded=0;" edge="1" parent="1">
          <mxGeometry width="50" height="50" relative="1" as="geometry">
            <mxPoint x="277.02" y="358.582995951417" as="sourcePoint" />
            <mxPoint x="277.02" y="328.58299595141705" as="targetPoint" />
          </mxGeometry>
        </mxCell>
        <mxCell id="NNPySh-XJAqyyE1wnARs-75" value="" style="endArrow=none;html=1;rounded=0;" edge="1" parent="1">
          <mxGeometry width="50" height="50" relative="1" as="geometry">
            <mxPoint x="277.02" y="358.582995951417" as="sourcePoint" />
            <mxPoint x="336" y="358.582995951417" as="targetPoint" />
          </mxGeometry>
        </mxCell>
        <mxCell id="NNPySh-XJAqyyE1wnARs-76" value="" style="endArrow=none;html=1;rounded=0;exitX=0.812;exitY=-0.005;exitDx=0;exitDy=0;exitPerimeter=0;" edge="1" parent="1">
          <mxGeometry width="50" height="50" relative="1" as="geometry">
            <mxPoint x="165" y="438.582995951417" as="sourcePoint" />
            <mxPoint x="182" y="438.582995951417" as="targetPoint" />
          </mxGeometry>
        </mxCell>
        <mxCell id="NNPySh-XJAqyyE1wnARs-77" value="" style="endArrow=none;html=1;rounded=0;exitX=0.812;exitY=-0.005;exitDx=0;exitDy=0;exitPerimeter=0;" edge="1" parent="1">
          <mxGeometry width="50" height="50" relative="1" as="geometry">
            <mxPoint x="160" y="358.582995951417" as="sourcePoint" />
            <mxPoint x="177" y="358.582995951417" as="targetPoint" />
          </mxGeometry>
        </mxCell>
        <mxCell id="NNPySh-XJAqyyE1wnARs-78" value="&lt;span style=&quot;color: rgb(0, 0, 0); font-family: Helvetica; font-size: 12px; font-style: normal; font-variant-ligatures: normal; font-variant-caps: normal; font-weight: 400; letter-spacing: normal; orphans: 2; text-align: center; text-indent: 0px; text-transform: none; widows: 2; word-spacing: 0px; -webkit-text-stroke-width: 0px; white-space: nowrap; text-decoration-thickness: initial; text-decoration-style: initial; text-decoration-color: initial; float: none; display: inline !important;&quot;&gt;rgb_fsin:10fps&lt;/span&gt;" style="text;whiteSpace=wrap;html=1;" vertex="1" parent="1">
          <mxGeometry x="80" y="258.58299595141705" width="70" height="40" as="geometry" />
        </mxCell>
        <mxCell id="NNPySh-XJAqyyE1wnARs-79" value="" style="endArrow=none;dashed=1;html=1;dashPattern=1 3;strokeWidth=2;rounded=0;" edge="1" parent="1">
          <mxGeometry width="50" height="50" relative="1" as="geometry">
            <mxPoint x="202" y="478.582995951417" as="sourcePoint" />
            <mxPoint x="202" y="131.417004048583" as="targetPoint" />
          </mxGeometry>
        </mxCell>
        <mxCell id="NNPySh-XJAqyyE1wnARs-80" value="" style="endArrow=none;dashed=1;html=1;dashPattern=1 3;strokeWidth=2;rounded=0;" edge="1" parent="1">
          <mxGeometry width="50" height="50" relative="1" as="geometry">
            <mxPoint x="445" y="477.165991902834" as="sourcePoint" />
            <mxPoint x="445" y="130" as="targetPoint" />
          </mxGeometry>
        </mxCell>
        <mxCell id="NNPySh-XJAqyyE1wnARs-81" value="" style="html=1;points=[[0,0,0,0,5],[0,1,0,0,-5],[1,0,0,0,5],[1,1,0,0,-5]];perimeter=orthogonalPerimeter;outlineConnect=0;targetShapes=umlLifeline;portConstraint=eastwest;newEdgeStyle={&quot;curved&quot;:0,&quot;rounded&quot;:0};" vertex="1" parent="1">
          <mxGeometry x="360" y="168.582995951417" width="2" height="30" as="geometry" />
        </mxCell>
        <mxCell id="NNPySh-XJAqyyE1wnARs-82" value="" style="html=1;points=[[0,0,0,0,5],[0,1,0,0,-5],[1,0,0,0,5],[1,1,0,0,-5]];perimeter=orthogonalPerimeter;outlineConnect=0;targetShapes=umlLifeline;portConstraint=eastwest;newEdgeStyle={&quot;curved&quot;:0,&quot;rounded&quot;:0};" vertex="1" parent="1">
          <mxGeometry x="280" y="168.582995951417" width="2" height="30" as="geometry" />
        </mxCell>
        <mxCell id="NNPySh-XJAqyyE1wnARs-83" value="" style="endArrow=none;html=1;rounded=0;" edge="1" parent="1">
          <mxGeometry width="50" height="50" relative="1" as="geometry">
            <mxPoint x="257" y="358.582995951417" as="sourcePoint" />
            <mxPoint x="257" y="328.58299595141705" as="targetPoint" />
          </mxGeometry>
        </mxCell>
        <mxCell id="NNPySh-XJAqyyE1wnARs-84" value="" style="endArrow=none;html=1;rounded=0;exitX=0.714;exitY=1;exitDx=0;exitDy=0;exitPerimeter=0;" edge="1" parent="1">
          <mxGeometry width="50" height="50" relative="1" as="geometry">
            <mxPoint x="336" y="328.58299595141705" as="sourcePoint" />
            <mxPoint x="356" y="328.58299595141705" as="targetPoint" />
          </mxGeometry>
        </mxCell>
        <mxCell id="NNPySh-XJAqyyE1wnARs-85" value="" style="endArrow=none;html=1;rounded=0;" edge="1" parent="1">
          <mxGeometry width="50" height="50" relative="1" as="geometry">
            <mxPoint x="335.98" y="358.582995951417" as="sourcePoint" />
            <mxPoint x="335.98" y="328.58299595141705" as="targetPoint" />
          </mxGeometry>
        </mxCell>
        <mxCell id="NNPySh-XJAqyyE1wnARs-86" value="" style="endArrow=none;html=1;rounded=0;" edge="1" parent="1">
          <mxGeometry width="50" height="50" relative="1" as="geometry">
            <mxPoint x="356" y="358.582995951417" as="sourcePoint" />
            <mxPoint x="356" y="328.58299595141705" as="targetPoint" />
          </mxGeometry>
        </mxCell>
        <mxCell id="NNPySh-XJAqyyE1wnARs-87" value="" style="endArrow=none;html=1;rounded=0;" edge="1" parent="1">
          <mxGeometry width="50" height="50" relative="1" as="geometry">
            <mxPoint x="356" y="358.582995951417" as="sourcePoint" />
            <mxPoint x="356" y="328.58299595141705" as="targetPoint" />
          </mxGeometry>
        </mxCell>
        <mxCell id="NNPySh-XJAqyyE1wnARs-88" value="" style="endArrow=none;html=1;rounded=0;" edge="1" parent="1">
          <mxGeometry width="50" height="50" relative="1" as="geometry">
            <mxPoint x="356" y="359.582995951417" as="sourcePoint" />
            <mxPoint x="356" y="329.58299595141705" as="targetPoint" />
          </mxGeometry>
        </mxCell>
        <mxCell id="NNPySh-XJAqyyE1wnARs-89" value="" style="endArrow=none;html=1;rounded=0;" edge="1" parent="1">
          <mxGeometry width="50" height="50" relative="1" as="geometry">
            <mxPoint x="356" y="358.582995951417" as="sourcePoint" />
            <mxPoint x="417" y="358.582995951417" as="targetPoint" />
          </mxGeometry>
        </mxCell>
        <mxCell id="NNPySh-XJAqyyE1wnARs-90" value="" style="endArrow=none;html=1;rounded=0;" edge="1" parent="1">
          <mxGeometry width="50" height="50" relative="1" as="geometry">
            <mxPoint x="436" y="358.582995951417" as="sourcePoint" />
            <mxPoint x="436" y="328.58299595141705" as="targetPoint" />
          </mxGeometry>
        </mxCell>
        <mxCell id="NNPySh-XJAqyyE1wnARs-91" value="" style="endArrow=none;html=1;rounded=0;exitX=0.714;exitY=1;exitDx=0;exitDy=0;exitPerimeter=0;" edge="1" parent="1">
          <mxGeometry width="50" height="50" relative="1" as="geometry">
            <mxPoint x="416" y="328.58299595141705" as="sourcePoint" />
            <mxPoint x="436" y="328.58299595141705" as="targetPoint" />
          </mxGeometry>
        </mxCell>
        <mxCell id="NNPySh-XJAqyyE1wnARs-92" value="" style="endArrow=none;html=1;rounded=0;" edge="1" parent="1">
          <mxGeometry width="50" height="50" relative="1" as="geometry">
            <mxPoint x="436" y="358.582995951417" as="sourcePoint" />
            <mxPoint x="436" y="328.58299595141705" as="targetPoint" />
          </mxGeometry>
        </mxCell>
        <mxCell id="NNPySh-XJAqyyE1wnARs-93" value="" style="endArrow=none;html=1;rounded=0;" edge="1" parent="1">
          <mxGeometry width="50" height="50" relative="1" as="geometry">
            <mxPoint x="436" y="358.582995951417" as="sourcePoint" />
            <mxPoint x="488" y="358.582995951417" as="targetPoint" />
          </mxGeometry>
        </mxCell>
        <mxCell id="NNPySh-XJAqyyE1wnARs-94" value="" style="endArrow=none;html=1;rounded=0;" edge="1" parent="1">
          <mxGeometry width="50" height="50" relative="1" as="geometry">
            <mxPoint x="415.98" y="358.582995951417" as="sourcePoint" />
            <mxPoint x="415.98" y="328.58299595141705" as="targetPoint" />
          </mxGeometry>
        </mxCell>
        <mxCell id="NNPySh-XJAqyyE1wnARs-95" value="" style="endArrow=none;html=1;rounded=0;exitX=0.714;exitY=1;exitDx=0;exitDy=0;exitPerimeter=0;" edge="1" parent="1">
          <mxGeometry width="50" height="50" relative="1" as="geometry">
            <mxPoint x="421" y="408.582995951417" as="sourcePoint" />
            <mxPoint x="441" y="408.582995951417" as="targetPoint" />
          </mxGeometry>
        </mxCell>
        <mxCell id="NNPySh-XJAqyyE1wnARs-96" value="" style="endArrow=none;html=1;rounded=0;" edge="1" parent="1">
          <mxGeometry width="50" height="50" relative="1" as="geometry">
            <mxPoint x="441" y="438.582995951417" as="sourcePoint" />
            <mxPoint x="441" y="408.582995951417" as="targetPoint" />
          </mxGeometry>
        </mxCell>
        <mxCell id="NNPySh-XJAqyyE1wnARs-97" value="" style="endArrow=none;html=1;rounded=0;" edge="1" parent="1">
          <mxGeometry width="50" height="50" relative="1" as="geometry">
            <mxPoint x="421" y="438.582995951417" as="sourcePoint" />
            <mxPoint x="421" y="408.582995951417" as="targetPoint" />
          </mxGeometry>
        </mxCell>
        <mxCell id="NNPySh-XJAqyyE1wnARs-98" value="" style="endArrow=none;html=1;rounded=0;" edge="1" parent="1">
          <mxGeometry width="50" height="50" relative="1" as="geometry">
            <mxPoint x="441" y="438.582995951417" as="sourcePoint" />
            <mxPoint x="493" y="438.582995951417" as="targetPoint" />
          </mxGeometry>
        </mxCell>
        <mxCell id="NNPySh-XJAqyyE1wnARs-101" value="mcu 机内同步" style="whiteSpace=wrap;html=1;" vertex="1" parent="1">
          <mxGeometry x="160" y="50" width="320" height="30" as="geometry" />
        </mxCell>
        <mxCell id="NNPySh-XJAqyyE1wnARs-102" value="&lt;span style=&quot;color: rgb(0, 0, 0); font-family: Helvetica; font-size: 12px; font-style: normal; font-variant-ligatures: normal; font-variant-caps: normal; font-weight: 400; letter-spacing: normal; orphans: 2; text-align: center; text-indent: 0px; text-transform: none; widows: 2; word-spacing: 0px; -webkit-text-stroke-width: 0px; white-space: normal; background-color: rgb(236, 236, 236); text-decoration-thickness: initial; text-decoration-style: initial; text-decoration-color: initial; display: inline !important; float: none;&quot;&gt;ir、rgb 同步模式，曝光结束对齐&lt;/span&gt;" style="text;whiteSpace=wrap;html=1;" vertex="1" parent="1">
          <mxGeometry x="240" y="120" width="200" height="40" as="geometry" />
        </mxCell>
        <mxCell id="NNPySh-XJAqyyE1wnARs-103" value="&lt;span style=&quot;color: rgb(0, 0, 0); font-family: Helvetica; font-size: 12px; font-style: normal; font-variant-ligatures: normal; font-variant-caps: normal; font-weight: 400; letter-spacing: normal; orphans: 2; text-align: center; text-indent: 0px; text-transform: none; widows: 2; word-spacing: 0px; -webkit-text-stroke-width: 0px; white-space: normal; background-color: rgb(236, 236, 236); text-decoration-thickness: initial; text-decoration-style: initial; text-decoration-color: initial; display: inline !important; float: none;&quot;&gt;ir、rgb 同步模式，错峰 3ms 曝光&lt;/span&gt;" style="text;whiteSpace=wrap;html=1;" vertex="1" parent="1">
          <mxGeometry x="240" y="520" width="210" height="40" as="geometry" />
        </mxCell>
      </root>
    </mxGraphModel>
  </diagram>
</mxfile>
